<?xml version="1.0" encoding="UTF-8"?><svg id="a" xmlns="http://www.w3.org/2000/svg" viewBox="0 0 46 46"><path d="M25.69,33.5c0-.74-.26-1.37-.79-1.9s-1.16-.79-1.9-.79-1.37.26-1.9.79-.79,1.16-.79,1.9.26,1.37.79,1.9c.53.52,1.16.79,1.9.79s1.37-.26,1.9-.79.79-1.16.79-1.9ZM30.97,18.04c0-1.08-.2-2.11-.6-3.09-.4-.99-.95-1.86-1.65-2.62s-1.52-1.37-2.47-1.83-1.98-.68-3.08-.69c-1.21,0-2.32.22-3.33.66s-1.87,1.03-2.57,1.78-1.25,1.64-1.65,2.67-.59,2.14-.59,3.33c0,.58.21,1.08.64,1.5.43.41.93.62,1.51.62.63,0,1.14-.22,1.55-.67s.61-.98.6-1.58c0-.54.08-1.05.25-1.54s.41-.92.72-1.28.69-.65,1.14-.86.96-.32,1.55-.32,1.06.11,1.51.34c.45.22.84.53,1.16.91s.57.82.74,1.31.25,1.01.25,1.54c0,.49-.15.92-.44,1.28s-.65.71-1.08,1.06c-.43.35-.89.7-1.39,1.06s-.97.78-1.4,1.28c-.43.49-.79,1.08-1.08,1.75s-.44,1.47-.44,2.39c0,.58.21,1.09.64,1.51s.93.64,1.51.64c.4,0,.73-.06.99-.18.26-.12.46-.3.62-.52s.28-.48.35-.77.14-.61.18-.94c.07-.43.26-.81.57-1.14s.68-.66,1.11-.97.88-.66,1.38-1.03.94-.8,1.35-1.3.74-1.09,1.01-1.78.4-1.52.4-2.49h0s0,0,0,0h0Z" style="stroke-width:0px;"/></svg>