<?xml version="1.0" encoding="UTF-8"?><svg id="a" xmlns="http://www.w3.org/2000/svg" viewBox="0 0 135 46"><path d="M21.2,34.88V11.16h6.41v18.54h9.13v5.18h-15.54Z" style="stroke-width:0px;"/><path d="M62.73,22.99c0,3.99-.98,7.03-2.94,9.1-1.96,2.08-4.82,3.12-8.6,3.12s-6.57-1.04-8.56-3.13-2.98-5.13-2.98-9.12.99-6.96,2.96-9.05c1.97-2.08,4.84-3.12,8.61-3.12s6.64,1.03,8.58,3.1c1.95,2.07,2.92,5.1,2.92,9.1ZM46.41,22.99c0,4.59,1.6,6.88,4.79,6.88,1.62,0,2.83-.56,3.61-1.67.78-1.11,1.18-2.85,1.18-5.21s-.4-4.12-1.19-5.25c-.79-1.13-1.98-1.7-3.56-1.7-3.21,0-4.82,2.31-4.82,6.94Z" style="stroke-width:0px;"/><path d="M76.54,21h10.24v12.78c-2.78.95-5.84,1.43-9.17,1.43-3.66,0-6.48-1.06-8.48-3.18-2-2.12-2.99-5.14-2.99-9.07s1.09-6.81,3.28-8.94c2.18-2.13,5.25-3.2,9.18-3.2,1.49,0,2.9.14,4.23.42s2.48.64,3.46,1.07l-2.03,5.03c-1.71-.84-3.58-1.27-5.63-1.27-1.87,0-3.32.61-4.34,1.83-1.02,1.22-1.53,2.96-1.53,5.22s.46,3.91,1.39,5.07,2.26,1.74,4,1.74c.95,0,1.83-.09,2.63-.28v-3.71h-4.23v-4.95Z" style="stroke-width:0px;"/><path d="M113.8,22.99c0,3.99-.98,7.03-2.94,9.1-1.96,2.08-4.82,3.12-8.6,3.12s-6.57-1.04-8.56-3.13c-1.98-2.09-2.98-5.13-2.98-9.12s.99-6.96,2.96-9.05c1.97-2.08,4.84-3.12,8.61-3.12s6.64,1.03,8.58,3.1,2.92,5.1,2.92,9.1ZM97.48,22.99c0,4.59,1.6,6.88,4.79,6.88,1.62,0,2.83-.56,3.61-1.67s1.18-2.85,1.18-5.21-.4-4.12-1.19-5.25c-.79-1.13-1.98-1.7-3.56-1.7-3.21,0-4.82,2.31-4.82,6.94Z" style="stroke-width:0px;"/></svg>